<?xml version="1.0" encoding="UTF-8" standalone="no"?>
<!-- Created with Inkscape (http://www.inkscape.org/) -->

<svg
   width="142.90956mm"
   height="135.46666mm"
   viewBox="0 0 142.90956 135.46666"
   version="1.1"
   id="svg827"
   inkscape:version="1.1.2 (b8e25be833, 2022-02-05)"
   sodipodi:docname="logo.svg"
   xmlns:inkscape="http://www.inkscape.org/namespaces/inkscape"
   xmlns:sodipodi="http://sodipodi.sourceforge.net/DTD/sodipodi-0.dtd"
   xmlns="http://www.w3.org/2000/svg"
   xmlns:svg="http://www.w3.org/2000/svg">
  <sodipodi:namedview
     id="namedview829"
     pagecolor="#ffffff"
     bordercolor="#666666"
     borderopacity="1.0"
     inkscape:pageshadow="2"
     inkscape:pageopacity="0.0"
     inkscape:pagecheckerboard="0"
     inkscape:document-units="mm"
     showgrid="false"
     inkscape:zoom="0.26867808"
     inkscape:cx="292.17121"
     inkscape:cy="87.465268"
     inkscape:window-width="2400"
     inkscape:window-height="1321"
     inkscape:window-x="-2409"
     inkscape:window-y="0"
     inkscape:window-maximized="1"
     inkscape:current-layer="layer1"
     fit-margin-top="0"
     fit-margin-left="0"
     fit-margin-right="0"
     fit-margin-bottom="0" />
  <defs
     id="defs824" />
  <g
     inkscape:label="Layer 1"
     inkscape:groupmode="layer"
     id="layer1"
     transform="translate(-33.545219,-80.766666)">
    <path
       id="rect2774"
       style="color:#000000;fill:#000000;stroke-width:2.53849;stroke-linecap:round;-inkscape-stroke:none"
       d="M 179.01758,0 176.09766,5.1367188 60.009766,209.40039 H 262.44922 v 60.64063 c -14.21264,3.74271 -24.20352,17.36208 -24.21094,33.0039 -3.7e-4,18.78296 14.2488,34.00977 31.82617,34.00977 17.57737,0 31.82654,-15.22681 31.82617,-34.00977 -0.002,-15.64558 -9.99315,-29.27105 -24.20898,-33.01562 v -60.62891 h 202.4375 L 361.11328,0 Z m 11.81445,20.308594 h 158.4668 L 445.2207,189.0918 H 94.910156 Z m -71.3125,202.525386 c -19.32701,27.9865 -30.662108,61.89799 -30.662108,98.42383 0,68.02681 39.308918,126.97915 96.396488,155.43555 L 210.46094,512 h 103.97851 l 25.20899,-35.30664 c 57.08753,-28.45652 96.39648,-87.40904 96.39648,-155.43555 0,-36.52569 -11.33699,-70.43741 -30.66406,-98.42383 h -25.3457 c 17.14301,20.46872 29.02644,45.49379 33.60351,73.01954 h -23.86133 v 0.0137 h -10.64453 c 1.79543,8.18494 2.79492,16.66698 2.79492,25.39062 0,51.04214 -32.37973,94.49527 -77.91015,111.23438 v 13.37695 22.98828 c -8.89779,2.4933 -18.12704,4.19628 -27.60547,5.04883 v -85.0625 h 72.01367 v -12.69336 h -156.7207 v 12.69336 h 72.01367 v 85.68555 c -0.42353,0.003 -0.84518,0.0156 -1.26953,0.0156 -8.98333,0 -17.78013,-0.77758 -26.33594,-2.2539 v -22.36133 -12.98828 c -53.36603,-11.89078 -93.14062,-59.11639 -93.14062,-115.6836 0,-8.72364 0.99753,-17.20568 2.79296,-25.39062 h -7.9707 v -0.0137 h -26.5332 c 4.57707,-27.52582 16.46053,-52.55073 33.60351,-73.01954 z m -9.82812,85.7129 h 21.22851 c -0.41733,4.18143 -0.63867,8.42041 -0.63867,12.71093 0,58.95709 39.24589,108.88126 93.13867,125.44336 v 22.8418 C 157.60315,452.31879 109.16406,392.54201 109.16406,321.25781 c 0,-4.28172 0.18441,-8.5191 0.52735,-12.71093 z"
       transform="matrix(0.26458333,0,0,0.26458333,33.545219,80.766666)"
       sodipodi:nodetypes="ccccccsccccccccccccsccccsccccccscccccccccccscccsccccccccsccsc" />
    <path
       id="path1618"
       style="color:#000000;fill:#000000;stroke-width:2.53849;stroke-linecap:round;-inkscape-stroke:none"
       d="M 179.01758,0 176.09766,5.1367188 60.009766,209.40039 H 262.44922 v 60.64063 c -14.21264,3.74271 -24.20352,17.36208 -24.21094,33.0039 -3.7e-4,18.78296 14.2488,34.00977 31.82617,34.00977 17.57737,0 31.82654,-15.22681 31.82617,-34.00977 -0.002,-15.64558 -9.99315,-29.27105 -24.20898,-33.01562 v -60.62891 h 202.4375 L 361.11328,0 Z m -59.49805,222.83398 c -19.32701,27.9865 -30.662108,61.89799 -30.662108,98.42383 0,68.02681 39.308918,126.97915 96.396488,155.43555 L 210.46094,512 h 103.97851 l 25.20899,-35.30664 c 57.08753,-28.45652 96.39648,-87.40904 96.39648,-155.43555 0,-36.52569 -11.33699,-70.43741 -30.66406,-98.42383 h -25.3457 c 17.14301,20.46872 29.02644,45.49379 33.60351,73.01954 h -23.86133 v 0.0137 h -10.64453 c 1.79543,8.18494 2.79492,16.66698 2.79492,25.39062 0,51.04214 -32.37973,94.49527 -77.91015,111.23438 v 13.37695 22.98828 c -8.89779,2.4933 -10.12704,4.19628 -19.60547,5.04883 v -85.0625 h 66.01367 v -20.69336 h -170.7207 v 20.69336 h 76.01367 v 85.68555 c -0.42353,0.003 -0.84518,0.0156 -1.26953,0.0156 -8.98333,0 -9.78013,-0.77758 -18.33594,-2.2539 V 449.9297 436.94142 c -53.36603,-11.89078 -93.14062,-59.11639 -93.14062,-115.6836 0,-8.72364 0.99753,-17.20568 2.79296,-25.39062 h -7.9707 v -0.0137 h -26.5332 c 4.57707,-27.52582 16.46053,-52.55073 33.60351,-73.01954 z"
       transform="matrix(0.26458333,0,0,0.26458333,33.545219,80.766666)"
       sodipodi:nodetypes="ccccccscccccccsccccsccccccscccccccccccscccscccccc" />
  </g>
</svg>
