<?xml version="1.0" standalone="no"?>
<!DOCTYPE svg PUBLIC "-//W3C//DTD SVG 20010904//EN"
 "http://www.w3.org/TR/2001/REC-SVG-20010904/DTD/svg10.dtd">
<svg version="1.0" xmlns="http://www.w3.org/2000/svg"
 width="540.000000pt" height="540.000000pt" viewBox="0 0 540.000000 540.000000"
 preserveAspectRatio="xMidYMid meet">
<metadata>
Created by potrace 1.14, written by Peter Selinger 2001-2017
</metadata>
<g transform="translate(0.000000,540.000000) scale(0.100000,-0.100000)"
fill="#000000" stroke="none">
<path d="M1776 5238 c-9 -12 -16 -28 -16 -34 0 -7 -4 -14 -8 -16 -4 -1 -24
-32 -44 -68 -20 -36 -48 -87 -64 -115 -15 -27 -37 -66 -49 -85 -12 -19 -24
-42 -28 -50 -4 -8 -11 -22 -17 -30 -13 -20 -274 -481 -283 -500 -4 -8 -15 -28
-26 -45 -10 -16 -45 -77 -78 -135 -33 -58 -65 -114 -71 -125 -138 -242 -192
-337 -192 -340 0 -3 -18 -33 -39 -69 -22 -35 -54 -91 -73 -125 -18 -34 -38
-70 -43 -79 -42 -70 -134 -239 -134 -247 -1 -6 352 -10 996 -10 549 0 1003 -3
1008 -7 6 -4 9 -111 8 -295 0 -158 -2 -291 -2 -294 -1 -4 -26 -19 -56 -33 -78
-39 -152 -129 -172 -209 -12 -52 -11 -151 4 -199 64 -216 304 -305 483 -178
19 13 37 27 40 31 3 4 16 21 30 39 45 58 70 145 65 234 -2 43 -9 84 -15 91 -6
7 -13 23 -15 35 -10 50 -138 170 -182 170 -7 0 -16 8 -20 18 -7 13 -9 492 -4
582 1 14 115 15 1010 15 892 0 1008 2 1003 15 -3 8 -15 31 -27 50 -12 19 -24
40 -26 45 -4 9 -118 209 -139 245 -8 12 -144 252 -230 405 -9 17 -45 80 -80
140 -34 61 -74 130 -88 155 -13 25 -40 70 -58 101 -19 31 -34 62 -34 68 0 6
-4 11 -10 11 -5 0 -10 4 -10 9 0 5 -33 67 -74 138 -40 70 -84 148 -98 173 -14
25 -59 104 -100 176 -41 72 -78 137 -81 145 -4 8 -21 37 -37 64 -17 28 -35 59
-40 70 -6 11 -18 34 -28 50 l-19 30 -911 3 -911 2 -15 -22z"/>
<path d="M1207 3032 c-9 -2 -34 -32 -57 -68 -43 -68 -142 -264 -134 -264 3 0
-2 -12 -10 -27 -38 -69 -98 -316 -111 -463 -6 -59 -7 -299 -1 -325 2 -11 7
-45 10 -75 9 -73 33 -176 62 -275 24 -79 39 -118 78 -205 11 -25 20 -48 20
-52 1 -4 7 -13 14 -20 6 -6 12 -15 12 -20 0 -15 95 -164 153 -242 66 -87 205
-230 282 -291 28 -22 52 -43 55 -46 10 -11 176 -116 225 -143 36 -19 62 -45
95 -92 25 -36 52 -74 60 -84 8 -11 44 -60 79 -110 l64 -90 522 0 522 0 26 38
c78 114 131 187 138 190 5 2 9 10 9 18 0 8 3 14 8 14 4 0 18 19 32 41 22 36
64 68 165 123 141 77 361 275 470 421 16 22 32 42 35 45 39 39 170 279 209
385 13 33 26 67 31 75 4 9 11 31 16 50 10 45 9 39 22 85 6 22 14 54 16 70 3
17 8 41 11 54 27 135 27 464 1 591 -3 14 -11 50 -17 80 -17 86 -86 285 -131
379 -51 107 -127 231 -142 232 -17 1 -155 1 -205 0 l-43 -1 34 -42 c50 -63
121 -174 158 -248 38 -75 97 -225 104 -263 2 -15 7 -30 10 -35 5 -8 11 -35 22
-103 l6 -36 -143 -1 c-222 -1 -202 2 -194 -29 13 -50 18 -116 19 -218 0 -150
-12 -234 -51 -358 -59 -190 -161 -355 -306 -498 -49 -49 -192 -159 -205 -159
-5 0 -20 -8 -33 -18 -13 -10 -59 -34 -101 -53 l-78 -34 -1 -40 c0 -22 0 -104
0 -181 l0 -142 -67 -16 c-37 -8 -81 -18 -97 -21 l-31 -6 1 418 0 418 330 5
329 5 1 85 c1 47 -1 92 -3 102 -4 15 -70 16 -855 15 l-852 -2 1 -100 0 -100
379 -5 380 -5 0 -422 c1 -287 -3 -423 -10 -424 -13 -2 -11 -2 -80 5 -112 12
-100 -10 -102 181 -1 92 -4 173 -7 180 -2 7 -22 16 -43 19 -57 11 -209 73
-288 119 -64 37 -106 66 -174 122 -36 29 -122 117 -151 153 -14 18 -35 44 -47
59 -51 62 -128 213 -155 303 -5 19 -13 40 -16 45 -4 6 -7 15 -8 20 -1 6 -7 33
-14 60 -21 93 -25 130 -25 260 0 119 9 217 21 236 10 17 -28 23 -175 24 -86 1
-159 2 -163 3 -3 1 0 30 8 65 48 210 164 460 281 605 20 24 33 46 30 49 -6 6
-203 10 -230 5z"/>
</g>
</svg>
